<svg id="visual" viewBox="0 0 900 100" width="900" height="100" xmlns="http://www.w3.org/2000/svg" xmlns:xlink="http://www.w3.org/1999/xlink" version="1.1"><rect x="0" y="0" width="900" height="100" fill="#b499ff"></rect><path d="M0 71L13.7 71.3C27.3 71.7 54.7 72.3 82 63.3C109.3 54.3 136.7 35.7 163.8 33C191 30.3 218 43.7 245.2 44.5C272.3 45.3 299.7 33.7 327 29C354.3 24.3 381.7 26.7 409 30.7C436.3 34.7 463.7 40.3 491 37C518.3 33.7 545.7 21.3 573 15C600.3 8.7 627.7 8.3 654.8 18.8C682 29.3 709 50.7 736.2 51.2C763.3 51.7 790.7 31.3 818 24.5C845.3 17.7 872.7 24.3 886.3 27.7L900 31L900 101L886.3 101C872.7 101 845.3 101 818 101C790.7 101 763.3 101 736.2 101C709 101 682 101 654.8 101C627.7 101 600.3 101 573 101C545.7 101 518.3 101 491 101C463.7 101 436.3 101 409 101C381.7 101 354.3 101 327 101C299.7 101 272.3 101 245.2 101C218 101 191 101 163.8 101C136.7 101 109.3 101 82 101C54.7 101 27.3 101 13.7 101L0 101Z" fill="#b499ff"></path><path d="M0 74L13.7 68C27.3 62 54.7 50 82 42.3C109.3 34.7 136.7 31.3 163.8 37.7C191 44 218 60 245.2 60.8C272.3 61.7 299.7 47.3 327 44C354.3 40.7 381.7 48.3 409 54C436.3 59.7 463.7 63.3 491 61C518.3 58.7 545.7 50.3 573 51.8C600.3 53.3 627.7 64.7 654.8 70C682 75.3 709 74.7 736.2 66.2C763.3 57.7 790.7 41.3 818 33C845.3 24.7 872.7 24.3 886.3 24.2L900 24L900 101L886.3 101C872.7 101 845.3 101 818 101C790.7 101 763.3 101 736.2 101C709 101 682 101 654.8 101C627.7 101 600.3 101 573 101C545.7 101 518.3 101 491 101C463.7 101 436.3 101 409 101C381.7 101 354.3 101 327 101C299.7 101 272.3 101 245.2 101C218 101 191 101 163.8 101C136.7 101 109.3 101 82 101C54.7 101 27.3 101 13.7 101L0 101Z" fill="#c7b0fe"></path><path d="M0 44L13.7 44.7C27.3 45.3 54.7 46.7 82 47C109.3 47.3 136.7 46.7 163.8 50.7C191 54.7 218 63.3 245.2 69.3C272.3 75.3 299.7 78.7 327 73.7C354.3 68.7 381.7 55.3 409 52C436.3 48.7 463.7 55.3 491 60C518.3 64.7 545.7 67.3 573 70.3C600.3 73.3 627.7 76.7 654.8 73.8C682 71 709 62 736.2 59.7C763.3 57.3 790.7 61.7 818 65.5C845.3 69.3 872.7 72.7 886.3 74.3L900 76L900 101L886.3 101C872.7 101 845.3 101 818 101C790.7 101 763.3 101 736.2 101C709 101 682 101 654.8 101C627.7 101 600.3 101 573 101C545.7 101 518.3 101 491 101C463.7 101 436.3 101 409 101C381.7 101 354.3 101 327 101C299.7 101 272.3 101 245.2 101C218 101 191 101 163.8 101C136.7 101 109.3 101 82 101C54.7 101 27.3 101 13.7 101L0 101Z" fill="#d8c8fc"></path><path d="M0 57L13.7 62C27.3 67 54.7 77 82 79.2C109.3 81.3 136.7 75.7 163.8 76C191 76.3 218 82.7 245.2 84.8C272.3 87 299.7 85 327 82.7C354.3 80.3 381.7 77.7 409 75.2C436.3 72.7 463.7 70.3 491 69.5C518.3 68.7 545.7 69.3 573 67.5C600.3 65.7 627.7 61.3 654.8 63.3C682 65.3 709 73.7 736.2 73.2C763.3 72.7 790.7 63.3 818 59.5C845.3 55.7 872.7 57.3 886.3 58.2L900 59L900 101L886.3 101C872.7 101 845.3 101 818 101C790.7 101 763.3 101 736.2 101C709 101 682 101 654.8 101C627.7 101 600.3 101 573 101C545.7 101 518.3 101 491 101C463.7 101 436.3 101 409 101C381.7 101 354.3 101 327 101C299.7 101 272.3 101 245.2 101C218 101 191 101 163.8 101C136.7 101 109.3 101 82 101C54.7 101 27.3 101 13.7 101L0 101Z" fill="#e8e0fa"></path><path d="M0 90L13.7 90.3C27.3 90.7 54.7 91.3 82 91C109.3 90.7 136.7 89.3 163.8 88.5C191 87.7 218 87.3 245.2 88.5C272.3 89.7 299.7 92.3 327 92.2C354.3 92 381.7 89 409 88.7C436.3 88.3 463.7 90.7 491 89.5C518.3 88.3 545.7 83.7 573 82C600.3 80.3 627.7 81.7 654.8 81.5C682 81.3 709 79.7 736.2 81.5C763.3 83.3 790.7 88.7 818 89.5C845.3 90.3 872.7 86.7 886.3 84.8L900 83L900 101L886.3 101C872.7 101 845.3 101 818 101C790.7 101 763.3 101 736.2 101C709 101 682 101 654.8 101C627.7 101 600.3 101 573 101C545.7 101 518.3 101 491 101C463.7 101 436.3 101 409 101C381.7 101 354.3 101 327 101C299.7 101 272.3 101 245.2 101C218 101 191 101 163.8 101C136.7 101 109.3 101 82 101C54.7 101 27.3 101 13.7 101L0 101Z" fill="#f8f8f8"></path></svg>