<svg id="visual" viewBox="0 0 900 100" width="900" height="100" xmlns="http://www.w3.org/2000/svg" xmlns:xlink="http://www.w3.org/1999/xlink" version="1.1"><rect x="0" y="0" width="900" height="100" fill="#b499ff"></rect><path d="M0 31L7.5 37.3C15 43.7 30 56.3 45 56C60 55.7 75 42.3 90 35.7C105 29 120 29 135 29.7C150 30.3 165 31.7 180 33.2C195 34.7 210 36.3 225 42.7C240 49 255 60 270 61C285 62 300 53 315 52.2C330 51.3 345 58.7 360 62.7C375 66.7 390 67.3 405 65.8C420 64.3 435 60.7 450 56.7C465 52.7 480 48.3 495 43.7C510 39 525 34 540 30.3C555 26.7 570 24.3 585 31C600 37.7 615 53.3 630 59.2C645 65 660 61 675 59.2C690 57.3 705 57.7 720 55C735 52.3 750 46.7 765 43.7C780 40.7 795 40.3 810 41.2C825 42 840 44 855 41C870 38 885 30 892.5 26L900 22L900 101L892.5 101C885 101 870 101 855 101C840 101 825 101 810 101C795 101 780 101 765 101C750 101 735 101 720 101C705 101 690 101 675 101C660 101 645 101 630 101C615 101 600 101 585 101C570 101 555 101 540 101C525 101 510 101 495 101C480 101 465 101 450 101C435 101 420 101 405 101C390 101 375 101 360 101C345 101 330 101 315 101C300 101 285 101 270 101C255 101 240 101 225 101C210 101 195 101 180 101C165 101 150 101 135 101C120 101 105 101 90 101C75 101 60 101 45 101C30 101 15 101 7.5 101L0 101Z" fill="#b499ff"></path><path d="M0 67L7.5 63.7C15 60.3 30 53.7 45 54.7C60 55.7 75 64.3 90 64.8C105 65.3 120 57.7 135 54.8C150 52 165 54 180 52C195 50 210 44 225 41.7C240 39.3 255 40.7 270 41C285 41.3 300 40.7 315 42.2C330 43.7 345 47.3 360 52.8C375 58.3 390 65.7 405 66.7C420 67.7 435 62.3 450 61.2C465 60 480 63 495 64C510 65 525 64 540 59.3C555 54.7 570 46.3 585 47.5C600 48.7 615 59.3 630 66.5C645 73.7 660 77.3 675 79.3C690 81.3 705 81.7 720 80.5C735 79.3 750 76.7 765 69.5C780 62.3 795 50.7 810 47.7C825 44.7 840 50.3 855 51.2C870 52 885 48 892.5 46L900 44L900 101L892.5 101C885 101 870 101 855 101C840 101 825 101 810 101C795 101 780 101 765 101C750 101 735 101 720 101C705 101 690 101 675 101C660 101 645 101 630 101C615 101 600 101 585 101C570 101 555 101 540 101C525 101 510 101 495 101C480 101 465 101 450 101C435 101 420 101 405 101C390 101 375 101 360 101C345 101 330 101 315 101C300 101 285 101 270 101C255 101 240 101 225 101C210 101 195 101 180 101C165 101 150 101 135 101C120 101 105 101 90 101C75 101 60 101 45 101C30 101 15 101 7.5 101L0 101Z" fill="#cfbaff"></path><path d="M0 87L7.5 86.3C15 85.7 30 84.3 45 84C60 83.7 75 84.3 90 79.8C105 75.3 120 65.7 135 65.3C150 65 165 74 180 73.8C195 73.7 210 64.3 225 63.5C240 62.7 255 70.3 270 75C285 79.7 300 81.3 315 80C330 78.7 345 74.3 360 70C375 65.7 390 61.3 405 60C420 58.7 435 60.3 450 61C465 61.7 480 61.3 495 65.3C510 69.3 525 77.7 540 80.2C555 82.7 570 79.3 585 79.2C600 79 615 82 630 79.2C645 76.3 660 67.7 675 65.8C690 64 705 69 720 73.2C735 77.3 750 80.7 765 78.8C780 77 795 70 810 70C825 70 840 77 855 79.5C870 82 885 80 892.5 79L900 78L900 101L892.5 101C885 101 870 101 855 101C840 101 825 101 810 101C795 101 780 101 765 101C750 101 735 101 720 101C705 101 690 101 675 101C660 101 645 101 630 101C615 101 600 101 585 101C570 101 555 101 540 101C525 101 510 101 495 101C480 101 465 101 450 101C435 101 420 101 405 101C390 101 375 101 360 101C345 101 330 101 315 101C300 101 285 101 270 101C255 101 240 101 225 101C210 101 195 101 180 101C165 101 150 101 135 101C120 101 105 101 90 101C75 101 60 101 45 101C30 101 15 101 7.5 101L0 101Z" fill="#e8dcff"></path><path d="M0 71L7.5 74.3C15 77.7 30 84.3 45 86.3C60 88.3 75 85.7 90 84.3C105 83 120 83 135 84.8C150 86.7 165 90.3 180 89C195 87.7 210 81.3 225 80.7C240 80 255 85 270 84.5C285 84 300 78 315 75.8C330 73.7 345 75.3 360 76.3C375 77.3 390 77.7 405 76.7C420 75.7 435 73.3 450 73.7C465 74 480 77 495 77C510 77 525 74 540 75.5C555 77 570 83 585 83.7C600 84.3 615 79.7 630 78.7C645 77.7 660 80.3 675 79.5C690 78.7 705 74.3 720 75.7C735 77 750 84 765 87.7C780 91.3 795 91.7 810 88.5C825 85.3 840 78.7 855 78.7C870 78.7 885 85.3 892.5 88.7L900 92L900 101L892.5 101C885 101 870 101 855 101C840 101 825 101 810 101C795 101 780 101 765 101C750 101 735 101 720 101C705 101 690 101 675 101C660 101 645 101 630 101C615 101 600 101 585 101C570 101 555 101 540 101C525 101 510 101 495 101C480 101 465 101 450 101C435 101 420 101 405 101C390 101 375 101 360 101C345 101 330 101 315 101C300 101 285 101 270 101C255 101 240 101 225 101C210 101 195 101 180 101C165 101 150 101 135 101C120 101 105 101 90 101C75 101 60 101 45 101C30 101 15 101 7.5 101L0 101Z" fill="#ffffff"></path></svg>