<svg id="visual" viewBox="0 0 900 100" width="900" height="100" xmlns="http://www.w3.org/2000/svg" xmlns:xlink="http://www.w3.org/1999/xlink" version="1.1"><rect x="0" y="0" width="900" height="100" fill="#fff"></rect><path d="M0 76L7.8 69C15.7 62 31.3 48 47.2 43.2C63 38.3 79 42.7 94.8 48.2C110.7 53.7 126.3 60.3 142 64C157.7 67.7 173.3 68.3 189.2 63.8C205 59.3 221 49.7 236.8 45.7C252.7 41.7 268.3 43.3 284.2 49.5C300 55.7 316 66.3 331.8 65.2C347.7 64 363.3 51 379 47.2C394.7 43.3 410.3 48.7 426.2 50.2C442 51.7 458 49.3 473.8 47.5C489.7 45.7 505.3 44.3 521 48.3C536.7 52.3 552.3 61.7 568.2 65.8C584 70 600 69 615.8 65.2C631.7 61.3 647.3 54.7 663.2 53C679 51.3 695 54.7 710.8 59.3C726.7 64 742.3 70 758 72C773.7 74 789.3 72 805.2 70C821 68 837 66 852.8 61.8C868.7 57.7 884.3 51.3 892.2 48.2L900 45L900 101L892.2 101C884.3 101 868.7 101 852.8 101C837 101 821 101 805.2 101C789.3 101 773.7 101 758 101C742.3 101 726.7 101 710.8 101C695 101 679 101 663.2 101C647.3 101 631.7 101 615.8 101C600 101 584 101 568.2 101C552.3 101 536.7 101 521 101C505.3 101 489.7 101 473.8 101C458 101 442 101 426.2 101C410.3 101 394.7 101 379 101C363.3 101 347.7 101 331.8 101C316 101 300 101 284.2 101C268.3 101 252.7 101 236.8 101C221 101 205 101 189.2 101C173.3 101 157.7 101 142 101C126.3 101 110.7 101 94.8 101C79 101 63 101 47.2 101C31.3 101 15.7 101 7.8 101L0 101Z" fill="#ffffff"></path><path d="M0 55L7.8 56.3C15.7 57.7 31.3 60.3 47.2 61.3C63 62.3 79 61.7 94.8 58.5C110.7 55.3 126.3 49.7 142 53.2C157.7 56.7 173.3 69.3 189.2 74.8C205 80.3 221 78.7 236.8 76.8C252.7 75 268.3 73 284.2 71.5C300 70 316 69 331.8 64.3C347.7 59.7 363.3 51.3 379 49.3C394.7 47.3 410.3 51.7 426.2 57.8C442 64 458 72 473.8 70.8C489.7 69.7 505.3 59.3 521 54.5C536.7 49.7 552.3 50.3 568.2 53.7C584 57 600 63 615.8 67.8C631.7 72.7 647.3 76.3 663.2 77.2C679 78 695 76 710.8 75.7C726.7 75.3 742.3 76.7 758 77.2C773.7 77.7 789.3 77.3 805.2 74.3C821 71.3 837 65.7 852.8 60C868.7 54.3 884.3 48.7 892.2 45.8L900 43L900 101L892.2 101C884.3 101 868.7 101 852.8 101C837 101 821 101 805.2 101C789.3 101 773.7 101 758 101C742.3 101 726.7 101 710.8 101C695 101 679 101 663.2 101C647.3 101 631.7 101 615.8 101C600 101 584 101 568.2 101C552.3 101 536.7 101 521 101C505.3 101 489.7 101 473.8 101C458 101 442 101 426.2 101C410.3 101 394.7 101 379 101C363.3 101 347.7 101 331.8 101C316 101 300 101 284.2 101C268.3 101 252.7 101 236.8 101C221 101 205 101 189.2 101C173.3 101 157.7 101 142 101C126.3 101 110.7 101 94.8 101C79 101 63 101 47.2 101C31.3 101 15.7 101 7.8 101L0 101Z" fill="#e8dcff"></path><path d="M0 60L7.8 63.2C15.7 66.3 31.3 72.7 47.2 74.8C63 77 79 75 94.8 73.8C110.7 72.7 126.3 72.3 142 71.5C157.7 70.7 173.3 69.3 189.2 69.7C205 70 221 72 236.8 74.2C252.7 76.3 268.3 78.7 284.2 77.3C300 76 316 71 331.8 72.3C347.7 73.7 363.3 81.3 379 79.8C394.7 78.3 410.3 67.7 426.2 63.5C442 59.3 458 61.7 473.8 65.8C489.7 70 505.3 76 521 76.5C536.7 77 552.3 72 568.2 70.8C584 69.7 600 72.3 615.8 74.5C631.7 76.7 647.3 78.3 663.2 76.2C679 74 695 68 710.8 66.2C726.7 64.3 742.3 66.7 758 68.8C773.7 71 789.3 73 805.2 75.8C821 78.7 837 82.3 852.8 82.7C868.7 83 884.3 80 892.2 78.5L900 77L900 101L892.2 101C884.3 101 868.7 101 852.8 101C837 101 821 101 805.2 101C789.3 101 773.7 101 758 101C742.3 101 726.7 101 710.8 101C695 101 679 101 663.2 101C647.3 101 631.7 101 615.8 101C600 101 584 101 568.2 101C552.3 101 536.7 101 521 101C505.3 101 489.7 101 473.8 101C458 101 442 101 426.2 101C410.3 101 394.7 101 379 101C363.3 101 347.7 101 331.8 101C316 101 300 101 284.2 101C268.3 101 252.7 101 236.8 101C221 101 205 101 189.2 101C173.3 101 157.7 101 142 101C126.3 101 110.7 101 94.8 101C79 101 63 101 47.2 101C31.3 101 15.7 101 7.8 101L0 101Z" fill="#cfbaff"></path><path d="M0 91L7.8 89.2C15.7 87.3 31.3 83.7 47.2 81C63 78.3 79 76.7 94.8 75C110.7 73.3 126.3 71.7 142 71.7C157.7 71.7 173.3 73.3 189.2 77.2C205 81 221 87 236.8 86.3C252.7 85.7 268.3 78.3 284.2 76.3C300 74.3 316 77.7 331.8 78.2C347.7 78.7 363.3 76.3 379 76.7C394.7 77 410.3 80 426.2 82C442 84 458 85 473.8 86C489.7 87 505.3 88 521 86C536.7 84 552.3 79 568.2 78.2C584 77.3 600 80.7 615.8 82.5C631.7 84.3 647.3 84.7 663.2 82.8C679 81 695 77 710.8 77.2C726.7 77.3 742.3 81.7 758 84.7C773.7 87.7 789.3 89.3 805.2 87C821 84.7 837 78.3 852.8 77.5C868.7 76.7 884.3 81.3 892.2 83.7L900 86L900 101L892.2 101C884.3 101 868.7 101 852.8 101C837 101 821 101 805.2 101C789.3 101 773.7 101 758 101C742.3 101 726.7 101 710.8 101C695 101 679 101 663.2 101C647.3 101 631.7 101 615.8 101C600 101 584 101 568.2 101C552.3 101 536.7 101 521 101C505.3 101 489.7 101 473.8 101C458 101 442 101 426.2 101C410.3 101 394.7 101 379 101C363.3 101 347.7 101 331.8 101C316 101 300 101 284.2 101C268.3 101 252.7 101 236.8 101C221 101 205 101 189.2 101C173.3 101 157.7 101 142 101C126.3 101 110.7 101 94.8 101C79 101 63 101 47.2 101C31.3 101 15.7 101 7.8 101L0 101Z" fill="#b499ff"></path></svg>